HIERARCHY
ROOT Hips
{
	OFFSET 51.701401 -5.040164 83.959099
	CHANNELS 6 Xposition Yposition Zposition Xrotation Yrotation Zrotation
	JOINT spine
	{
		OFFSET 0.000000 -0.342408 5.954384
		CHANNELS 3 Xrotation Yrotation Zrotation
		JOINT spine1
		{
			OFFSET 0.000000 -0.000001 8.856018
			CHANNELS 3 Xrotation Yrotation Zrotation
			JOINT spine2
			{
				OFFSET 0.000000 -0.000001 8.485672
				CHANNELS 3 Xrotation Yrotation Zrotation
				JOINT Neck
				{
					OFFSET 0.000000 -1.038703 21.786301
					CHANNELS 3 Xrotation Yrotation Zrotation
					JOINT Head
					{
						OFFSET 0.000000 -0.000001 6.582199
						CHANNELS 3 Xrotation Yrotation Zrotation
						End Site
						{
							OFFSET 0.000000 5.254357 15.932602
						}
					}
				}
				JOINT RightShoulder
				{
					OFFSET -3.573071 0.497524 9.163864
					CHANNELS 3 Xrotation Yrotation Zrotation
					JOINT RightArm
					{
						OFFSET 0.000000 -0.000002 12.019196
						CHANNELS 3 Xrotation Yrotation Zrotation
						JOINT RightArmRoll
						{
							OFFSET 0.000000 -0.000001 6.067551
							CHANNELS 3 Xrotation Yrotation Zrotation
							JOINT RightForeArm
							{
								OFFSET 0.000000 -0.000003 17.672592
								CHANNELS 3 Xrotation Yrotation Zrotation
								JOINT RightForeArmRoll
								{
									OFFSET 0.000000 -0.000001 6.808716
									CHANNELS 3 Xrotation Yrotation Zrotation
									JOINT RightHand
									{
										OFFSET 0.000000 -0.000002 13.663605
										CHANNELS 3 Xrotation Yrotation Zrotation
										End Site
										{
											OFFSET 0.000000 0.000000 0.100006
										}
									}
								}
							}
						}
					}
				}
				JOINT LeftShoulder
				{
					OFFSET 3.573071 0.497524 9.163864
					CHANNELS 3 Xrotation Yrotation Zrotation
					JOINT LeftArm
					{
						OFFSET 0.000000 -0.000002 12.019196
						CHANNELS 3 Xrotation Yrotation Zrotation
						JOINT LeftArmRoll
						{
							OFFSET 0.000000 -0.000001 6.067551
							CHANNELS 3 Xrotation Yrotation Zrotation
							JOINT LeftForeArm
							{
								OFFSET 0.000000 -0.000003 17.672592
								CHANNELS 3 Xrotation Yrotation Zrotation
								JOINT LeftForeArmRoll
								{
									OFFSET 0.000000 -0.000001 6.808716
									CHANNELS 3 Xrotation Yrotation Zrotation
									JOINT LeftHand
									{
										OFFSET 0.000000 -0.000002 13.663605
										CHANNELS 3 Xrotation Yrotation Zrotation
										End Site
										{
											OFFSET 0.000000 0.000000 0.100006
										}
									}
								}
							}
						}
					}
				}
			}
		}
	}
	JOINT RightUpLeg
	{
		OFFSET -5.277740 0.811859 -0.967796
		CHANNELS 3 Xrotation Yrotation Zrotation
		JOINT RightUpLegRoll
		{
			OFFSET 0.000000 -0.000003 16.021400
			CHANNELS 3 Xrotation Yrotation Zrotation
			JOINT RightLeg
			{
				OFFSET 0.000000 0.000003 -19.840096
				CHANNELS 3 Xrotation Yrotation Zrotation
				JOINT RightLegRoll
				{
					OFFSET 0.000000 -0.000003 19.904999
					CHANNELS 3 Xrotation Yrotation Zrotation
					JOINT RightFoot
					{
						OFFSET 0.000000 -0.000003 16.567497
						CHANNELS 3 Xrotation Yrotation Zrotation
						JOINT RightToeBase
						{
							OFFSET 0.000000 -0.000002 13.849602
							CHANNELS 3 Xrotation Yrotation Zrotation
							End Site
							{
								OFFSET 0.005871 0.773116 6.707275
							}
						}
					}
				}
			}
		}
	}
	JOINT LeftUpLeg
	{
		OFFSET 5.277740 0.811859 -0.967796
		CHANNELS 3 Xrotation Yrotation Zrotation
		JOINT LeftUpLegRoll
		{
			OFFSET 0.000000 -0.000003 16.021500
			CHANNELS 3 Xrotation Yrotation Zrotation
			JOINT LeftLeg
			{
				OFFSET 0.000000 -0.000003 19.839996
				CHANNELS 3 Xrotation Yrotation Zrotation
				JOINT LeftLegRoll
				{
					OFFSET 0.000000 -0.000003 20.089005
					CHANNELS 3 Xrotation Yrotation Zrotation
					JOINT LeftFoot
					{
						OFFSET 0.000000 -0.000003 16.383499
						CHANNELS 3 Xrotation Yrotation Zrotation
						JOINT LeftToeBase
						{
							OFFSET 0.000000 -0.000002 13.849594
							CHANNELS 3 Xrotation Yrotation Zrotation
							End Site
							{
								OFFSET -0.026310 0.773116 6.707275
							}
						}
					}
				}
			}
		}
	}
}
MOTION
Frames: 4
Frame Time: 0.041667
54.594505 -11.665518 81.598793 -0.336922 0.901613 1.674832 -0.170042 0.192792 0.116892 3.662334 0.386259 0.232421 5.307392 0.389008 0.227490 -2.862179 14.952363 -5.980277 -9.422547 -22.579045 -9.882827 -7.627814 -53.449782 -8.498773 -6.495596 -127.996871 -27.965544 0.000002 -0.000000 -0.000001 -0.025729 3.639440 -1.991398 0.000003 0.000002 -3.011609 -5.000143 -7.999931 0.000013 -10.563947 60.346224 12.506133 -26.043433 123.250504 40.414308 0.000000 -0.000003 0.000003 -0.026053 -3.639579 1.990816 -0.000003 -0.000005 3.011601 -5.000164 7.999920 -0.000004 -10.891919 -178.448459 2.237305 -179.999991 0.000005 -1.231000 146.437466 0.155829 -1.052619 -0.000000 0.000002 1.049090 77.930983 6.503480 2.542637 29.130777 -7.254394 1.821919 -14.757549 -179.121957 2.296585 -0.000004 -0.000004 -1.319160 -36.615073 -1.701604 0.747584 -0.000005 -0.000005 -1.039750 75.736136 -6.633918 -2.291169 31.297713 7.228184 -1.630464 
54.547001 -11.603017 81.166702 -0.264927 1.047459 1.625943 -0.158222 0.150428 0.118741 3.686061 0.301587 0.236418 5.331107 0.304392 0.232587 -2.932936 14.997420 -5.968027 -9.695249 -22.525646 -9.941263 -7.727773 -53.222753 -8.604684 -6.645147 -128.206544 -28.330836 0.000002 -0.000001 -0.000000 -0.025728 3.639440 -1.991395 0.000003 0.000001 -3.011610 -5.000142 -7.999931 0.000014 -10.826024 60.424662 12.818347 -26.283806 123.339310 40.697143 0.000001 -0.000003 0.000002 -0.026055 -3.639570 1.990816 -0.000003 -0.000005 3.011601 -5.000165 7.999921 -0.000005 -11.126443 -178.620416 2.232153 -179.999991 0.000005 -1.231000 145.869249 0.088568 -1.064961 -0.000000 0.000003 1.112090 78.786942 6.477961 2.591087 29.445144 -7.235567 1.989113 -15.358549 -179.270992 2.263422 -0.000006 -0.000005 -1.338880 -37.591695 -1.792904 0.742754 -0.000001 -0.000005 -1.119400 76.479411 -6.612383 -2.321493 31.847331 7.202691 -1.786603 
54.504101 -11.450716 81.018394 -0.193462 1.173333 1.584112 -0.143944 0.109846 0.120263 3.714688 0.220487 0.239742 5.359751 0.223339 0.236961 -3.036938 15.088250 -5.959472 -9.929434 -22.506570 -10.010119 -7.829502 -52.954593 -8.711472 -6.782609 -128.452813 -28.723117 0.000002 -0.000001 0.000001 -0.025726 3.639440 -1.991394 0.000002 0.000002 -3.011609 -5.000143 -7.999932 0.000014 -11.085260 60.538439 13.128600 -26.567506 123.413527 41.002944 0.000000 -0.000003 0.000003 -0.026060 -3.639570 1.990814 -0.000003 -0.000005 3.011600 -5.000163 7.999921 -0.000005 -11.388302 -178.778521 2.223057 -179.999991 0.000005 -1.231000 145.280091 0.036993 -1.078366 -0.000001 0.000002 1.174250 79.613307 6.455094 2.637822 29.716288 -7.217592 2.139535 -15.961022 -179.384687 2.251005 -0.000005 -0.000004 -1.360570 -38.553515 -1.889200 0.736818 -0.000004 -0.000005 -1.198400 77.178112 -6.593545 -2.350568 32.348196 7.177204 -1.930507 
54.452099 -11.386713 80.570602 -0.123568 1.275167 1.550870 -0.126825 0.071556 0.121399 3.749012 0.143978 0.242276 5.394070 0.146868 0.240473 -3.177862 15.231633 -5.954896 -10.117766 -22.526941 -10.091005 -7.932482 -52.640237 -8.818286 -6.905301 -128.739435 -29.144363 0.000002 -0.000000 -0.000001 -0.025726 3.639440 -1.991397 0.000002 0.000002 -3.011609 -5.000144 -7.999932 0.000014 -11.339273 60.692071 13.434165 -26.900639 123.469671 41.335386 0.000001 -0.000003 0.000002 -0.026062 -3.639561 1.990814 -0.000003 -0.000005 3.011600 -5.000163 7.999920 -0.000005 -11.679688 -178.917884 2.209397 -179.999991 0.000005 -1.231997 144.668188 0.004900 -1.093532 -0.000000 0.000002 1.234940 80.397870 6.434702 2.681823 29.935032 -7.201518 2.269313 -16.561653 -179.453658 2.260345 -0.000005 -0.000004 -1.384480 -39.495805 -1.990854 0.729880 -0.000002 -0.000005 -1.276170 77.819801 -6.577376 -2.377733 32.788272 7.152892 -2.059144 
